<svg width="131" height="24" viewBox="0 0 131 24" fill="none" xmlns="http://www.w3.org/2000/svg">
<g clip-path="url(#clip0)">
<path d="M16.2951 8.35375L15.9238 10.4164C14.7687 17.2438 10.6846 18.8734 6.57991 18.8734C5.71483 18.9727 4.83849 18.8801 4.01333 18.602C3.18818 18.3238 2.43455 17.8671 1.80615 17.2643C1.17776 16.6615 0.690083 15.9275 0.377885 15.1147C0.0656872 14.3018 -0.0633418 13.4301 -4.01586e-06 12.5616C0.0109472 11.8695 0.0799447 11.1795 0.206263 10.4989L0.577543 8.43626C1.73264 1.69134 5.81672 -5.02989e-05 9.92143 -5.02989e-05C10.7847 -0.0990132 11.6591 -0.006742 12.4826 0.270213C13.3062 0.547169 14.0587 1.00202 14.6867 1.60247C15.3147 2.20293 15.8029 2.93427 16.1165 3.74457C16.4301 4.55488 16.5615 5.42429 16.5013 6.29109C16.489 6.98312 16.42 7.67298 16.2951 8.35375ZM9.01385 5.13599C7.61124 5.13599 6.95119 6.00231 6.47677 8.35375L6.188 10.5196C6.09568 11.0023 6.04735 11.4925 6.04361 11.984C6.04361 13.2423 6.53865 13.7373 7.56999 13.7373C8.9726 13.7373 9.63265 12.871 10.1071 10.5196L10.4783 8.45689C10.5593 7.97945 10.6076 7.49704 10.6227 7.01302C10.5402 5.63103 10.0452 5.13599 9.01385 5.13599Z" fill="#42A5F5"/>
<path d="M25.969 0.742555L22.8337 18.564C22.153 22.4418 20.0285 23.7825 17.2233 23.7825C16.2915 23.7763 15.3612 23.7074 14.4387 23.5763C14.1705 23.5763 13.9643 23.4113 14.0261 23.0812L14.6243 19.7603C14.6269 19.6908 14.6435 19.6224 14.6732 19.5594C14.7029 19.4965 14.745 19.4401 14.797 19.3939C14.8491 19.3476 14.9099 19.3124 14.976 19.2903C15.042 19.2682 15.1118 19.2597 15.1812 19.2653H16.2538C16.687 19.2653 16.852 19.1209 16.9345 18.5021L20.111 0.742555C20.1316 0.596687 20.2071 0.464188 20.3221 0.372165C20.4371 0.280142 20.583 0.235551 20.7298 0.247514H25.5564C25.969 0.247514 26.0102 0.495035 25.969 0.742555Z" fill="#42A5F5"/>
<path d="M42.8416 8.35378L42.4703 10.4164C41.2533 17.2439 37.128 18.8734 33.1058 18.8734C32.2407 18.9728 31.3644 18.8801 30.5392 18.602C29.7141 18.3239 28.9605 17.8671 28.3321 17.2643C27.7037 16.6616 27.216 15.9276 26.9038 15.1147C26.5916 14.3018 26.4626 13.4301 26.5259 12.5616C26.5368 11.8695 26.6058 11.1795 26.7322 10.499L27.1034 8.43629C28.2585 1.77387 32.3426 0.185619 36.4473 0.185619C37.3106 0.0866557 38.185 0.178927 39.0085 0.455882C39.8321 0.732838 40.5846 1.18769 41.2126 1.78814C41.8406 2.3886 42.3288 3.11994 42.6424 3.93024C42.956 4.74055 43.0874 5.60996 43.0272 6.47675C43.0126 7.1062 42.9505 7.73365 42.8416 8.35378ZM35.5398 5.13602C34.1578 5.13602 33.4771 6.00234 33.0233 8.35378L32.652 10.4164C32.5534 10.8987 32.4982 11.3888 32.487 11.8809C32.487 13.1392 32.982 13.6342 34.034 13.6342C35.416 13.6342 36.0967 12.7679 36.5505 10.4164L36.9217 8.35378C37.013 7.87779 37.0614 7.39456 37.0661 6.90991C37.128 5.63106 36.5711 5.13602 35.5398 5.13602Z" fill="#42A5F5"/>
<path d="M65.0565 1.11382L62.0244 18.3577C62.0244 18.6259 61.7356 18.6259 61.5706 18.6259H56.8471C56.3933 18.6259 56.3933 18.3577 56.4552 18.1308L57.7547 10.3133C57.7547 10.1896 57.7547 10.0864 57.6309 10.0864C57.5072 10.0864 57.4865 10.0864 57.3628 10.3133L55.0938 13.1185C54.7844 13.4486 54.6194 13.5723 54.3513 13.5723H52.9074C52.6393 13.5723 52.4949 13.5723 52.3299 13.1185L50.9891 10.3133C50.9891 10.1689 50.8654 10.0864 50.7622 10.0864C50.6591 10.0864 50.6179 10.0864 50.5972 10.3133L49.2359 18.0483C49.2359 18.3165 49.1121 18.5434 48.7821 18.5434H44.0173C43.7904 18.5434 43.5223 18.5434 43.5842 18.1308L46.5957 1.11382C46.6462 0.875005 46.7751 0.659967 46.9621 0.502965C47.149 0.345963 47.383 0.256032 47.627 0.247499H50.8654C51.1417 0.211093 51.4221 0.274072 51.6563 0.425196C51.8905 0.57632 52.0635 0.805757 52.1442 1.07257L54.5782 6.53863C54.5782 6.70365 54.7226 6.80678 54.8257 6.80678C54.9288 6.80678 55.032 6.80678 55.1557 6.53863L59.5286 1.07257C59.6915 0.806719 59.9231 0.589752 60.199 0.444541C60.4749 0.299331 60.7848 0.231257 61.0962 0.247499H64.3346C64.9946 0.247499 65.139 0.639405 65.0565 1.11382Z" fill="#42A5F5"/>
<path d="M80.279 18.564H75.1636C74.8954 18.564 74.7511 18.3371 74.7511 18.069V15.3669H71.0176L70.1307 18.1308C70.087 18.2647 70.0052 18.3829 69.8953 18.4709C69.7853 18.5588 69.6521 18.6127 69.5119 18.6259H64.3552C64.1077 18.564 63.9427 18.564 63.9427 18.3577C63.933 18.2824 63.933 18.2062 63.9427 18.1308L69.5119 3.19713C70.5432 0.660053 72.5853 0 75.6174 0C78.6495 0 80.444 0.660053 80.444 3.19713L80.7534 18.1308C80.7508 18.1905 80.7364 18.249 80.7111 18.303C80.6858 18.3571 80.6501 18.4056 80.6061 18.4458C80.562 18.4861 80.5104 18.5172 80.4543 18.5375C80.3982 18.5578 80.3386 18.5668 80.279 18.564ZM74.7717 4.72351C74.5654 4.72351 74.5654 4.84727 74.5035 5.05353L72.5646 10.8084H74.8542V5.05353V4.92978C74.9367 4.80602 74.9161 4.72351 74.7717 4.72351Z" fill="#42A5F5"/>
<path d="M98.4099 4.95035C98.4099 5.30101 98.3067 5.44539 97.8942 5.38351C97.4817 5.32163 95.089 5.13599 93.5626 5.13599C90.8605 5.13599 89.8704 5.67229 89.4373 8.39501L89.066 10.4577C88.9764 10.9409 88.9281 11.4308 88.9216 11.9222C88.9216 13.7167 89.8292 13.7992 90.4273 13.7992C90.7015 13.8297 90.9782 13.8297 91.2524 13.7992L92.0362 9.34384C92.0413 9.27142 92.061 9.20078 92.0942 9.13621C92.1274 9.07164 92.1733 9.01448 92.2293 8.96819C92.2852 8.92191 92.3499 8.88746 92.4196 8.86694C92.4892 8.84641 92.5623 8.84024 92.6344 8.8488H97.2548C97.5642 8.8488 97.7085 9.01381 97.6467 9.34384L96.2028 17.5945C96.2028 18.0277 96.0378 18.0483 95.584 18.1514C93.5964 18.5745 91.5723 18.8025 89.5404 18.8321C88.6877 18.9219 87.8257 18.8267 87.0132 18.5531C86.2006 18.2794 85.4567 17.8337 84.8321 17.2463C84.2075 16.6589 83.717 15.9437 83.394 15.1495C83.071 14.3552 82.9231 13.5007 82.9605 12.6441C82.9575 11.9513 83.0266 11.26 83.1667 10.5814L83.538 8.51877C84.8169 0.82502 89.3547 -4.76171e-05 93.0882 -4.76171e-05C94.9518 -0.022001 96.8081 0.235247 98.5955 0.763139C99.0493 0.886899 99.0699 1.01066 99.0287 1.32006L98.4099 4.95035Z" fill="#42A5F5"/>
<path d="M113.859 0.763112L113.199 4.49654C113.197 4.56805 113.18 4.63828 113.149 4.70278C113.118 4.76728 113.074 4.82464 113.019 4.8712C112.965 4.91776 112.902 4.9525 112.833 4.97323C112.765 4.99395 112.693 5.0002 112.622 4.99158H107.651C107.032 4.99158 106.826 5.17722 106.702 5.79602L106.454 7.11613H112.25C112.313 7.10885 112.377 7.11773 112.435 7.14195C112.494 7.16616 112.545 7.2049 112.584 7.25449C112.623 7.30407 112.649 7.36286 112.66 7.42529C112.67 7.48771 112.664 7.55169 112.642 7.61117L112.044 11.1177C112.013 11.2544 111.937 11.377 111.829 11.4664C111.721 11.5559 111.586 11.6073 111.446 11.6127H105.67L105.444 12.8091C105.42 13.0078 105.42 13.2086 105.444 13.4073C105.444 13.7579 105.67 13.8817 106.165 13.8817H111.137C111.425 13.8817 111.59 14.0467 111.528 14.3767L110.889 18.1101C110.889 18.3783 110.765 18.5639 110.291 18.6052C108.599 18.7916 106.898 18.8811 105.196 18.8733C102.123 18.8733 99.4206 17.8214 99.4206 14.4386C99.4241 13.9822 99.4655 13.5268 99.5443 13.0772L100.864 5.79602C101.855 0.247445 105.423 -7.50945e-05 108.538 -7.50945e-05C110.178 -0.00616739 111.817 0.0833667 113.447 0.268072C113.51 0.262436 113.573 0.272179 113.632 0.296468C113.69 0.320756 113.742 0.358866 113.783 0.407532C113.823 0.456198 113.851 0.513969 113.865 0.575898C113.878 0.637826 113.876 0.702065 113.859 0.763112Z" fill="#42A5F5"/>
<path d="M127.06 11.4478L129.35 17.904C129.358 17.9725 129.358 18.0417 129.35 18.1102C129.356 18.1795 129.347 18.2494 129.324 18.3148C129.3 18.3803 129.262 18.4397 129.213 18.4889C129.164 18.5381 129.104 18.5759 129.039 18.5996C128.973 18.6232 128.904 18.6322 128.834 18.6259H123.76C123.492 18.6259 123.43 18.3784 123.368 18.1308L121.326 12.376H120.398L119.367 18.1927C119.364 18.2642 119.347 18.3345 119.316 18.399C119.285 18.4635 119.241 18.5208 119.187 18.5674C119.132 18.6139 119.069 18.6487 119.001 18.6694C118.932 18.6901 118.86 18.6964 118.789 18.6878H113.962C113.694 18.564 113.447 18.564 113.447 18.1308L116.231 2.39269C116.499 0.86632 116.974 0.515667 118.294 0.330027C119.284 0.165013 122.172 0 123.884 0C128.38 0 131 1.62951 131 5.13604C131.043 6.46012 130.691 7.76707 129.99 8.89088C129.288 10.0147 128.269 10.9047 127.06 11.4478ZM123.554 4.86789H121.697L121.161 7.98252H123.017C124.647 7.98252 125.08 7.07495 125.08 6.12612C125.08 5.1773 124.626 4.86789 123.554 4.86789Z" fill="#42A5F5"/>
</g>
<defs>
<clipPath id="clip0">
<rect width="131" height="23.7207" fill="white"/>
</clipPath>
</defs>
</svg>
